<svg xmlns="http://www.w3.org/2000/svg" viewBox="0 0 320 320" role="img" aria-labelledby="title desc">
  <title id="title">Anger management strategies</title>
  <desc id="desc">A pause button, breathing rings, and a steady progress path representing constructive coping strategies.</desc>
  <defs>
    <linearGradient id="bg" x1="0" y1="0" x2="1" y2="1">
      <stop offset="0" stop-color="#00133f"/>
      <stop offset="1" stop-color="#007baf"/>
    </linearGradient>
  </defs>
  <rect width="320" height="320" fill="url(#bg)"/>
  <circle cx="160" cy="150" r="86" fill="#edf3f7" opacity=".12"/>
  <circle cx="160" cy="150" r="62" fill="#edf3f7" opacity=".18"/>
  <circle cx="160" cy="150" r="40" fill="#edf3f7" opacity=".95"/>
  <rect x="145" y="126" width="12" height="48" rx="4" fill="#004071"/>
  <rect x="166" y="126" width="12" height="48" rx="4" fill="#004071"/>
  <path d="M61 234c33-39 65-37 99-9 37 31 70 29 101-11" fill="none" stroke="#37b550" stroke-width="11" stroke-linecap="round"/>
  <path d="M55 239h215" fill="none" stroke="#d3b257" stroke-width="7" stroke-linecap="round" opacity=".8"/>
  <path d="M235 80l25-25M260 55l7 34M260 55l-35 2" fill="none" stroke="#d3b257" stroke-width="8" stroke-linecap="round" stroke-linejoin="round"/>
  <path d="M86 88c16-17 38-22 59-14M77 115c20-22 51-30 79-20" fill="none" stroke="#edf3f7" stroke-width="7" stroke-linecap="round" opacity=".8"/>
  <rect x="96" y="252" width="128" height="12" rx="6" fill="#edf3f7" opacity=".9"/>
</svg>
