<svg xmlns="http://www.w3.org/2000/svg" viewBox="0 0 320 320" role="img" aria-labelledby="title desc">
  <title id="title">Review and assessment</title>
  <desc id="desc">A checklist with quiz tiles and check marks for reviewing anger management concepts.</desc>
  <defs>
    <linearGradient id="bg" x1="0" y1="0" x2="1" y2="1">
      <stop offset="0" stop-color="#00133f"/>
      <stop offset="1" stop-color="#004071"/>
    </linearGradient>
  </defs>
  <rect width="320" height="320" fill="url(#bg)"/>
  <rect x="82" y="50" width="156" height="218" rx="18" fill="#edf3f7"/>
  <rect x="117" y="36" width="86" height="34" rx="12" fill="#d3b257"/>
  <path d="M119 112l14 14 31-34M119 162l14 14 31-34M119 212l14 14 31-34" fill="none" stroke="#37b550" stroke-width="9" stroke-linecap="round" stroke-linejoin="round"/>
  <path d="M181 111h34M181 128h24M181 161h34M181 178h24M181 211h34M181 228h24" fill="none" stroke="#004071" stroke-width="7" stroke-linecap="round"/>
  <rect x="30" y="101" width="54" height="54" rx="10" fill="#a7253f"/>
  <rect x="236" y="167" width="54" height="54" rx="10" fill="#37b550"/>
  <path d="M50 128h14M57 121v14M255 193h18" fill="none" stroke="#edf3f7" stroke-width="7" stroke-linecap="round"/>
</svg>
