<svg xmlns="http://www.w3.org/2000/svg" viewBox="0 0 1280 720" role="img" aria-labelledby="title desc">
  <title id="title">Anger iceberg video poster</title>
  <desc id="desc">A large iceberg above and below the water surface with hidden emotion markers.</desc>
  <defs>
    <linearGradient id="bg" x1="0" y1="0" x2="0" y2="1">
      <stop offset="0" stop-color="#007baf"/>
      <stop offset=".52" stop-color="#d5e8f0"/>
      <stop offset=".53" stop-color="#004071"/>
      <stop offset="1" stop-color="#00133f"/>
    </linearGradient>
    <linearGradient id="ice" x1="0" y1="0" x2="1" y2="1">
      <stop offset="0" stop-color="#ffffff"/>
      <stop offset="1" stop-color="#76cde8"/>
    </linearGradient>
  </defs>
  <rect width="1280" height="720" fill="url(#bg)"/>
  <path d="M0 382c162-42 260 30 404-1 108-24 193-76 335-18 140 57 285-8 541-42v399H0z" fill="#004071" opacity=".7"/>
  <path d="M430 330l120-214 103 130 88-188 165 272z" fill="url(#ice)"/>
  <path d="M250 360h780" stroke="#edf3f7" stroke-width="18" stroke-linecap="round"/>
  <path d="M390 388l155 278 112-86 84 95 164-287z" fill="#5fc1dc" opacity=".9"/>
  <path d="M540 392l52 234M660 392l-18 190M766 392l-74 230" stroke="#edf3f7" stroke-width="14" stroke-linecap="round" opacity=".45"/>
  <circle cx="468" cy="480" r="24" fill="#d3b257"/>
  <circle cx="640" cy="548" r="24" fill="#37b550"/>
  <circle cx="820" cy="486" r="24" fill="#a7253f"/>
</svg>
