<svg version="1.1" viewBox="0 0 96 96" xmlns="http://www.w3.org/2000/svg" xmlns:xlink="http://www.w3.org/1999/xlink" id="Icons_Clipboard1_RTL" overflow="hidden"><path d=" M 45.4 55.2 L 47 60.1 L 46.1 61 L 41.2 59.4 C 41.2 59.4 41.2 59.4 41.1 59.3 C 40 58.2 40 56.4 41.2 55.3 C 42.4 54.2 44.2 54.1 45.4 55.2 Z M 11.8 33.2 L 40 61.4 L 51 65 L 47.4 54.1 L 19.2 25.8 L 11.8 33.2 Z" fill="#FFC000" fill-opacity="1"/><path d=" M 5.5 23.9 C 4.7 24.8 4.8 26.2 5.7 27 L 9.7 31 L 17 23.7 L 13 19.7 C 13 19.7 13 19.7 13 19.7 C 12.1 18.8 10.6 18.8 9.8 19.7 L 5.7 23.8 C 5.6 23.8 5.6 23.9 5.5 23.9 Z" fill="#FFC000" fill-opacity="1"/><path d=" M 70 61 L 52.8 61 L 54.2 65 L 70 65 Z" fill="#FFC000" fill-opacity="1"/><path d=" M 70 37 L 34.6 37 L 38.6 41 L 70 41 Z" fill="#FFC000" fill-opacity="1"/><path d=" M 20 45.6 L 20 84 C 20 86.2 21.8 88 24 88 L 78 88 C 80.2 88 82 86.2 82 84 L 82 18 C 82 15.8 80.2 14 78 14 L 61 14 L 61 12 C 61 9.8 59.2 8 57 8 L 45 8 C 42.8 8 41 9.8 41 12 L 41 14 L 24 14 C 21.8 14 20 15.8 20 18 L 20 22.4 L 21.1 23.5 L 21.3 23.7 L 21.3 23.7 L 26 28.4 L 26 20 L 37 20 L 37 26 L 65 26 L 65 20 L 76 20 L 76 82 L 26 82 L 26 51.6 L 20 45.6 Z M 54 15 C 54 16.7 52.7 18 51 18 C 49.3 18 48 16.7 48 15 C 48 13.3 49.3 12 51 12 C 51.8 12 52.6 12.3 53.1 12.9 C 53.7 13.4 54 14.2 54 15 Z" fill="#FFC000" fill-opacity="1"/><path d=" M 70 49 L 46.6 49 L 50.6 53 L 70 53 Z" fill="#FFC000" fill-opacity="1"/></svg>